<mxfile host="app.diagrams.net" agent="Mozilla/5.0 (X11; Ubuntu; Linux x86_64; rv:130.0) Gecko/20100101 Firefox/130.0" version="24.7.14">
  <diagram name="Page-1" id="Yi61yMIlDV1y_TVT1QJk">
    <mxGraphModel dx="1364" dy="1858" grid="1" gridSize="10" guides="1" tooltips="1" connect="1" arrows="1" fold="1" page="1" pageScale="1" pageWidth="850" pageHeight="1100" math="0" shadow="0">
      <root>
        <mxCell id="0" />
        <mxCell id="1" parent="0" />
        <mxCell id="r3eyPPp5EzBEvDB9Ui9X-18" value="" style="rounded=0;whiteSpace=wrap;html=1;dashed=1;" vertex="1" parent="1">
          <mxGeometry x="100" y="160" width="750" height="480" as="geometry" />
        </mxCell>
        <mxCell id="r3eyPPp5EzBEvDB9Ui9X-17" value="" style="ellipse;shape=cloud;whiteSpace=wrap;html=1;" vertex="1" parent="1">
          <mxGeometry x="560" y="-5" width="250" height="130" as="geometry" />
        </mxCell>
        <mxCell id="r3eyPPp5EzBEvDB9Ui9X-1" value="Edge" style="rounded=1;whiteSpace=wrap;html=1;fillColor=#ffe6cc;strokeColor=#d79b00;dashed=1;" vertex="1" parent="1">
          <mxGeometry x="410" y="220" width="120" height="60" as="geometry" />
        </mxCell>
        <mxCell id="r3eyPPp5EzBEvDB9Ui9X-2" value="Node 1" style="rounded=1;whiteSpace=wrap;html=1;fillColor=#d5e8d4;strokeColor=#82b366;dashed=1;" vertex="1" parent="1">
          <mxGeometry x="410" y="380" width="120" height="60" as="geometry" />
        </mxCell>
        <mxCell id="r3eyPPp5EzBEvDB9Ui9X-3" value="Node 2" style="rounded=1;whiteSpace=wrap;html=1;fillColor=#f8cecc;strokeColor=#b85450;dashed=1;" vertex="1" parent="1">
          <mxGeometry x="110" y="550" width="120" height="60" as="geometry" />
        </mxCell>
        <mxCell id="r3eyPPp5EzBEvDB9Ui9X-4" value="Node 3" style="rounded=1;whiteSpace=wrap;html=1;fillColor=#f8cecc;strokeColor=#b85450;dashed=1;" vertex="1" parent="1">
          <mxGeometry x="410" y="550" width="120" height="60" as="geometry" />
        </mxCell>
        <mxCell id="r3eyPPp5EzBEvDB9Ui9X-5" value="Node 4" style="rounded=1;whiteSpace=wrap;html=1;fillColor=#f8cecc;strokeColor=#b85450;dashed=1;" vertex="1" parent="1">
          <mxGeometry x="710" y="560" width="120" height="60" as="geometry" />
        </mxCell>
        <mxCell id="r3eyPPp5EzBEvDB9Ui9X-6" value="" style="endArrow=classic;startArrow=classic;html=1;rounded=0;exitX=0.5;exitY=0;exitDx=0;exitDy=0;entryX=0.5;entryY=1;entryDx=0;entryDy=0;dashed=1;" edge="1" parent="1" source="r3eyPPp5EzBEvDB9Ui9X-3" target="r3eyPPp5EzBEvDB9Ui9X-2">
          <mxGeometry width="50" height="50" relative="1" as="geometry">
            <mxPoint x="400" y="420" as="sourcePoint" />
            <mxPoint x="450" y="370" as="targetPoint" />
          </mxGeometry>
        </mxCell>
        <mxCell id="r3eyPPp5EzBEvDB9Ui9X-9" value="" style="endArrow=classic;startArrow=classic;html=1;rounded=0;entryX=0.5;entryY=0;entryDx=0;entryDy=0;exitX=0.5;exitY=1;exitDx=0;exitDy=0;dashed=1;" edge="1" parent="1" source="r3eyPPp5EzBEvDB9Ui9X-2" target="r3eyPPp5EzBEvDB9Ui9X-5">
          <mxGeometry width="50" height="50" relative="1" as="geometry">
            <mxPoint x="400" y="420" as="sourcePoint" />
            <mxPoint x="450" y="370" as="targetPoint" />
          </mxGeometry>
        </mxCell>
        <mxCell id="r3eyPPp5EzBEvDB9Ui9X-11" value="" style="endArrow=classic;startArrow=classic;html=1;rounded=0;entryX=0.5;entryY=0;entryDx=0;entryDy=0;exitX=0.5;exitY=1;exitDx=0;exitDy=0;dashed=1;" edge="1" parent="1" source="r3eyPPp5EzBEvDB9Ui9X-2" target="r3eyPPp5EzBEvDB9Ui9X-4">
          <mxGeometry width="50" height="50" relative="1" as="geometry">
            <mxPoint x="400" y="420" as="sourcePoint" />
            <mxPoint x="450" y="370" as="targetPoint" />
          </mxGeometry>
        </mxCell>
        <mxCell id="r3eyPPp5EzBEvDB9Ui9X-12" value="" style="endArrow=classic;startArrow=classic;html=1;rounded=0;entryX=0.5;entryY=1;entryDx=0;entryDy=0;exitX=0.5;exitY=0;exitDx=0;exitDy=0;dashed=1;" edge="1" parent="1" source="r3eyPPp5EzBEvDB9Ui9X-2" target="r3eyPPp5EzBEvDB9Ui9X-1">
          <mxGeometry width="50" height="50" relative="1" as="geometry">
            <mxPoint x="400" y="420" as="sourcePoint" />
            <mxPoint x="450" y="370" as="targetPoint" />
          </mxGeometry>
        </mxCell>
        <mxCell id="r3eyPPp5EzBEvDB9Ui9X-13" value="" style="html=1;verticalLabelPosition=bottom;align=center;labelBackgroundColor=#ffffff;verticalAlign=top;strokeWidth=2;strokeColor=#0080F0;shadow=0;dashed=0;shape=mxgraph.ios7.icons.wifi;pointerEvents=1" vertex="1" parent="1">
          <mxGeometry x="420" y="190" width="29.7" height="21" as="geometry" />
        </mxCell>
        <mxCell id="r3eyPPp5EzBEvDB9Ui9X-14" value="NTP Server" style="rounded=1;whiteSpace=wrap;html=1;fillColor=#e1d5e7;strokeColor=#9673a6;" vertex="1" parent="1">
          <mxGeometry x="630" y="30" width="120" height="60" as="geometry" />
        </mxCell>
        <mxCell id="r3eyPPp5EzBEvDB9Ui9X-15" value="" style="endArrow=classic;startArrow=classic;html=1;rounded=0;entryX=0.5;entryY=1;entryDx=0;entryDy=0;exitX=0.5;exitY=0;exitDx=0;exitDy=0;" edge="1" parent="1" source="r3eyPPp5EzBEvDB9Ui9X-1" target="r3eyPPp5EzBEvDB9Ui9X-14">
          <mxGeometry width="50" height="50" relative="1" as="geometry">
            <mxPoint x="400" y="390" as="sourcePoint" />
            <mxPoint x="450" y="340" as="targetPoint" />
          </mxGeometry>
        </mxCell>
        <mxCell id="r3eyPPp5EzBEvDB9Ui9X-19" value="Local network" style="text;html=1;align=center;verticalAlign=middle;whiteSpace=wrap;rounded=0;" vertex="1" parent="1">
          <mxGeometry x="100" y="160" width="80" height="30" as="geometry" />
        </mxCell>
        <mxCell id="r3eyPPp5EzBEvDB9Ui9X-20" value="NTP Server/Client" style="text;html=1;align=center;verticalAlign=middle;whiteSpace=wrap;rounded=0;" vertex="1" parent="1">
          <mxGeometry x="240" y="390" width="100" height="35" as="geometry" />
        </mxCell>
        <mxCell id="r3eyPPp5EzBEvDB9Ui9X-21" value="NTP Server/Client" style="text;html=1;align=center;verticalAlign=middle;whiteSpace=wrap;rounded=0;" vertex="1" parent="1">
          <mxGeometry x="240" y="232.5" width="100" height="35" as="geometry" />
        </mxCell>
        <mxCell id="r3eyPPp5EzBEvDB9Ui9X-22" value="NTP Client" style="text;html=1;align=center;verticalAlign=middle;whiteSpace=wrap;rounded=0;" vertex="1" parent="1">
          <mxGeometry x="250" y="562.5" width="100" height="35" as="geometry" />
        </mxCell>
        <mxCell id="r3eyPPp5EzBEvDB9Ui9X-23" value="NTP Client" style="text;html=1;align=center;verticalAlign=middle;whiteSpace=wrap;rounded=0;" vertex="1" parent="1">
          <mxGeometry x="580" y="562.5" width="100" height="35" as="geometry" />
        </mxCell>
      </root>
    </mxGraphModel>
  </diagram>
</mxfile>
